<svg width="512" height="512" viewBox="0 0 512 512" fill="none" xmlns="http://www.w3.org/2000/svg">
<rect width="512" height="512" fill="white"/>
<path d="M331.5 294.5L340.75 271.25H367.5L354.75 236L370.75 196L416 316H382.5L374.75 294.5H331.5Z" fill="#101010"/>
<path d="M303 316L351.5 196H319.5L286.25 273.5L262.5 196H237.75L212.5 273.5L194.5 238.25L178.25 288L194.75 316H226.5L249.25 246.5L271.25 316H303Z" fill="#101010"/>
<path d="M126.5 274.75H146.5C151.904 274.903 157.3 274.229 162.5 272.75L167.75 257L182 213C180.97 211.255 179.708 209.657 178.25 208.25C170.75 200 160 196 146 196H96V316H126.5V274.75ZM152.75 223.5C154.267 225.044 155.45 226.884 156.224 228.906C156.999 230.928 157.348 233.087 157.25 235.25C157.476 239.417 156.139 243.518 153.5 246.75C150.5 250 145.5 251.5 138 251.5H126.5V219.25H138.25C145 219.25 150 220.75 152.75 223.5Z" fill="#101010"/>
</svg>
